PathFileType	4	(X/Y/Z)	C:/Users/beibeiliu/ov580/test_trc/User3\sequence.10_training_dense_left.trc
DataRate	CameraRate	NumFrames	NumMarkers	Units	OrigDataRate	OrigDataStartFrame	OrigNumFrames
120	120	7	19	mm	120	71	117
Frame#	Time	ThumbCMC			ThumbMCP			ThumbIP			ThumbTip			IndexMCP			IndexPIP			IndexTip			MiddleMCP			MiddlePIP			MiddleTip			RingMCP			RingPIP			RingTip			PinkyMCP			PinkyPIP			PinkyTip			BackHand1			BackHand2			BackHand3	
		X0	Y0	Z0	X1	Y1	Z1	X2	Y2	Z2	X3	Y3	Z3	X4	Y4	Z4	X5	Y5	Z5	X6	Y6	Z6	X7	Y7	Z7	X8	Y8	Z8	X9	Y9	Z9	X10	Y10	Z10	X11	Y11	Z11	X12	Y12	Z12	X13	Y13	Z13	X14	Y14	Z14	X15	Y15	Z15	X16	Y16	Z16	X17	Y17	Z17	X18	Y18	Z18	
70	0.583333	-140.923	-58.4088	-7.67034	-125.764	-67.2763	-32.4123	-115.496	-78.9851	-60.4892	-127.683	-95.0187	-80.3473	-157.873	-55.9058	-86.9572	-147.957	-78.8963	-104.944	-144.903	-110.967	-86.6877	-182.401	-50.6819	-89.3464	-181.766	-58.4944	-117.394	-170.35	-75.3249	-144.463	-204.987	-59.4993	-78.5068	-202.798	-62.1614	-109.341	-201.34	-74.4053	-135.848	-221.183	-73.8375	-65.8701	-225.583	-78.2028	-85.5138	-221.206	-83.9418	-111.749	-207.837	-52.3481	-28.5608	-203.934	-51.9487	2.19088	-175.438	-41.6335	-15.7519	
71	0.591667	-138.802	-63.4879	-10.8599	-121.232	-73.4472	-31.8368	-120.787	-82.1768	-62.3929	-133.946	-94.9204	-84.2689	-161.586	-51.0711	-85.1529	-154.599	-75.8729	-105.776	-154.311	-105.755	-92.2557	-181.55	-38.3555	-85.5044	-178.452	-43.2073	-115.285	-175.954	-60.0995	-147.468	-200.773	-44.8742	-78.5078	-203.815	-44.0646	-101.505	-205.042	-53.1826	-133.949	-220.712	-60.2744	-59.6664	-225.271	-59.3226	-85.2922	-227.312	-61.2829	-110.798	-202.625	-44.0258	-26.4553	-201.554	-47.0163	4.11754	-166.587	-39.7675	-14.334	
72	0.6	-137.892	-72.6292	-7.12755	-123.504	-81.9295	-34.3782	-120.815	-90.5167	-65.2776	-141.51	-97.6066	-84.2056	-160.442	-51.9532	-85.2025	-160.151	-75.3964	-107.12	-159.825	-105.214	-95.5644	-182.04	-37.0875	-86.8927	-182.84	-41.8593	-116.932	-182.035	-55.911	-144.812	-201.183	-41.0783	-75.8615	-202.565	-38.5451	-103.451	-204.037	-46.2378	-132.086	-217.225	-53.8075	-59.2826	-227.139	-51.8845	-82.333	-233.919	-54.2559	-107.385	-200.642	-41.7219	-21.3598	-196.772	-46.81	8.79056	-165.97	-44.3062	-11.2522	
73	0.608333	-140.495	-76.5036	-6.93017	-128.573	-87.1884	-36.0967	-126.383	-99.8821	-66.2957	-140.136	-111.425	-83.1804	-160.081	-62.0262	-84.1393	-159.232	-89.105	-105.773	-165.28	-116.852	-86.5636	-180.071	-48.3889	-86.7211	-183.299	-53.6909	-114.586	-185.472	-73.169	-146.609	-199.719	-49.79	-74.6807	-202.965	-50.8309	-105.742	-207.961	-61.7364	-132.599	-219.868	-59.4011	-62.5061	-230.538	-61.5919	-83.7114	-230.4	-69.5894	-108.924	-196.974	-46.7099	-25.8766	-201.045	-48.5392	3.01671	-166.479	-48.2822	-15.3473	
74	0.616667	-141.355	-66.7634	-5.57754	-121.024	-80.6831	-29.6531	-117.437	-97.4862	-57.5987	-125.445	-114.42	-73.3657	-157.938	-73.0273	-82.4529	-151.974	-102.081	-96.9157	-146.138	-123.575	-71.7174	-179.082	-65.3895	-90.1411	-178.206	-78.3355	-114.433	-171.197	-98.4466	-138.699	-196.945	-68.1968	-74.7662	-201.658	-76.2982	-106.364	-200.011	-90.9051	-124.842	-218.086	-79.9097	-59.8056	-220.416	-86.4189	-79.8185	-219.356	-99.84	-103.092	-203.02	-56.7229	-24.3933	-199.864	-48.3168	2.3228	-168.434	-46.0427	-16.5531	
75	0.625	-145.14	-40.5896	-7.34403	-122.47	-51.494	-27.115	-106.923	-66.0133	-47.8909	-105.721	-90.547	-60.0986	-153.61	-73.5921	-79.399	-129.803	-98.8197	-83.3936	-117.292	-104.954	-54.9048	-172.824	-78.3064	-85.9459	-163.28	-94.6513	-108.02	-144.24	-116.207	-128.545	-190.284	-90.467	-73.4839	-182.922	-99.4236	-98.2022	-173.181	-120.706	-119.393	-199.214	-102.832	-52.0658	-199.928	-116.48	-71.9911	-189.29	-128.002	-92.5347	-201.217	-67.305	-30.7934	-207.941	-55.175	0.73258	-183.5	-41.086	-18.6755	
76	0.633333	-164.601	-22.4535	-13.868	-138.601	-19.9412	-29.4821	-117.664	-33.5063	-47.6136	-101.219	-52.126	-56.4871	-148.942	-59.0905	-76.6539	-114.781	-68.7355	-78.9029	-104.48	-70.7933	-48.8681	-162.876	-81.7795	-83.7956	-145.236	-93.4044	-102.08	-118.574	-100.494	-117.344	-172.181	-94.9035	-67.4512	-160.049	-110.744	-90.349	-142.42	-121.617	-104.675	-176.054	-113.755	-45.4092	-167.455	-125.854	-60.3844	-152.332	-137.668	-81.0048	-198.202	-78.3423	-24.0295	-211.687	-73.077	-2.19399	-196.076	-47.1245	-25.8424	
